<?xml version="1.0" encoding="utf-8"?>
<svg version="1.1" xmlns:xlink="http://www.w3.org/1999/xlink" width="15px" height="15px" viewBox="344 608  15 15" xmlns="http://www.w3.org/2000/svg">
  <path d="M 344.5 615.5  A 7 7 0 0 1 351.5 608.5 A 7 7 0 0 1 358.5 615.5 A 7 7 0 0 1 351.5 622.5 A 7 7 0 0 1 344.5 615.5 Z " fill-rule="nonzero" fill="#f0f0f0" stroke="none" />
  <path d="M 344.5 615.5  A 7 7 0 0 1 351.5 608.5 A 7 7 0 0 1 358.5 615.5 A 7 7 0 0 1 351.5 622.5 A 7 7 0 0 1 344.5 615.5 Z " stroke-width="1" stroke="#797979" fill="none" />
</svg>