<?xml version="1.0" encoding="utf-8"?>
<svg version="1.1" xmlns:xlink="http://www.w3.org/1999/xlink" width="24px" height="24px" xmlns="http://www.w3.org/2000/svg">
  <g transform="matrix(1 0 0 1 -14 -602 )">
    <path d="M 26 602  C 32.72 602  38 607.28  38 614  C 38 620.72  32.72 626  26 626  C 19.28 626  14 620.72  14 614  C 14 607.28  19.28 602  26 602  Z " fill-rule="nonzero" fill="#ffffff" stroke="none" />
    <path d="M 26 602.5  C 32.44 602.5  37.5 607.56  37.5 614  C 37.5 620.44  32.44 625.5  26 625.5  C 19.56 625.5  14.5 620.44  14.5 614  C 14.5 607.56  19.56 602.5  26 602.5  Z " stroke-width="1" stroke="#797979" fill="none" />
  </g>
</svg>