<?xml version="1.0" encoding="utf-8"?>
<svg version="1.1" xmlns:xlink="http://www.w3.org/1999/xlink" width="17px" height="17px" viewBox="12 245  17 17" xmlns="http://www.w3.org/2000/svg">
  <path d="M 12.5 253.5  A 8 8 0 0 1 20.5 245.5 A 8 8 0 0 1 28.5 253.5 A 8 8 0 0 1 20.5 261.5 A 8 8 0 0 1 12.5 253.5 Z " fill-rule="nonzero" fill="#ffffff" stroke="none" />
  <path d="M 12.5 253.5  A 8 8 0 0 1 20.5 245.5 A 8 8 0 0 1 28.5 253.5 A 8 8 0 0 1 20.5 261.5 A 8 8 0 0 1 12.5 253.5 Z " stroke-width="1" stroke="#797979" fill="none" />
</svg>