<?xml version="1.0" encoding="utf-8"?>
<svg version="1.1" xmlns:xlink="http://www.w3.org/1999/xlink" width="17px" height="17px" viewBox="12 357  17 17" xmlns="http://www.w3.org/2000/svg">
  <path d="M 12.5 365.5  A 8 8 0 0 1 20.5 357.5 A 8 8 0 0 1 28.5 365.5 A 8 8 0 0 1 20.5 373.5 A 8 8 0 0 1 12.5 365.5 Z " fill-rule="nonzero" fill="#f0f0f0" stroke="none" />
  <path d="M 12.5 365.5  A 8 8 0 0 1 20.5 357.5 A 8 8 0 0 1 28.5 365.5 A 8 8 0 0 1 20.5 373.5 A 8 8 0 0 1 12.5 365.5 Z " stroke-width="1" stroke="#797979" fill="none" />
</svg>