<?xml version="1.0" encoding="utf-8"?>
<svg version="1.1" xmlns:xlink="http://www.w3.org/1999/xlink" width="17px" height="17px" viewBox="12 357  17 17" xmlns="http://www.w3.org/2000/svg">
  <path d="M 12.5 365.5  A 8 8 0 0 1 20.5 357.5 A 8 8 0 0 1 28.5 365.5 A 8 8 0 0 1 20.5 373.5 A 8 8 0 0 1 12.5 365.5 Z " fill-rule="nonzero" fill="#ffffff" stroke="none" />
  <path d="M 12.5 365.5  A 8 8 0 0 1 20.5 357.5 A 8 8 0 0 1 28.5 365.5 A 8 8 0 0 1 20.5 373.5 A 8 8 0 0 1 12.5 365.5 Z " stroke-width="1" stroke="#797979" fill="none" />
  <path d="M 15.6428571428571 365.5  L 19.2857142857143 369.142857142857  " stroke-width="3.64285714285714" stroke="#797979" fill="none" />
  <path d="M 19.2857142857143 369.142857142857  L 25.3571428571429 360.642857142857  " stroke-width="3.64285714285714" stroke="#797979" fill="none" />
</svg>