<?xml version="1.0" encoding="utf-8"?>
<svg version="1.1" xmlns:xlink="http://www.w3.org/1999/xlink" width="16px" height="16px" viewBox="12 570  16 16" xmlns="http://www.w3.org/2000/svg">
  <path d="M 12.5 578  A 7.5 7.5 0 0 1 20 570.5 A 7.5 7.5 0 0 1 27.5 578 A 7.5 7.5 0 0 1 20 585.5 A 7.5 7.5 0 0 1 12.5 578 Z " fill-rule="nonzero" fill="#ffffff" stroke="none" />
  <path d="M 12.5 578  A 7.5 7.5 0 0 1 20 570.5 A 7.5 7.5 0 0 1 27.5 578 A 7.5 7.5 0 0 1 20 585.5 A 7.5 7.5 0 0 1 12.5 578 Z " stroke-width="1" stroke="#7f7f7f" fill="none" />
</svg>