<?xml version="1.0" encoding="utf-8"?>
<svg version="1.1" xmlns:xlink="http://www.w3.org/1999/xlink" width="17px" height="17px" viewBox="12 43  17 17" xmlns="http://www.w3.org/2000/svg">
  <path d="M 12.5 51.5  A 8 8 0 0 1 20.5 43.5 A 8 8 0 0 1 28.5 51.5 A 8 8 0 0 1 20.5 59.5 A 8 8 0 0 1 12.5 51.5 Z " fill-rule="nonzero" fill="#f0f0f0" stroke="none" />
  <path d="M 12.5 51.5  A 8 8 0 0 1 20.5 43.5 A 8 8 0 0 1 28.5 51.5 A 8 8 0 0 1 20.5 59.5 A 8 8 0 0 1 12.5 51.5 Z " stroke-width="1" stroke="#797979" fill="none" />
  <path d="M 15.6428571428571 51.5  L 19.2857142857143 55.1428571428571  " stroke-width="3.64285714285714" stroke="#797979" fill="none" />
  <path d="M 19.2857142857143 55.1428571428571  L 25.3571428571429 46.6428571428571  " stroke-width="3.64285714285714" stroke="#797979" fill="none" />
</svg>