<?xml version="1.0" encoding="utf-8"?>
<svg version="1.1" xmlns:xlink="http://www.w3.org/1999/xlink" width="355px" height="78px" xmlns="http://www.w3.org/2000/svg">
  <defs>
    <mask fill="white" id="clip70">
      <path d="M 39 77.5  C 17.6325 77.5  0.5 60.3675  0.5 39  L 0.5 39  C 0.5 17.6325  17.6325 0.5  39 0.5  L 316 0.5  C 337.3675 0.5  354.5 17.6325  354.5 39  L 354.5 39  C 354.5 60.3675  337.3675 77.5  316 77.5  L 39 77.5  " fill-rule="evenodd" />
    </mask>
  </defs>
  <g>
    <path d="M 0 0  L 355 0  L 355 78  L 0 78  L 0 0  " fill-rule="nonzero" fill="#cccccc" stroke="none" mask="url(#clip70)" />
    <path d="M 5 5  L 350 5  L 350 73  L 5 73  L 5 5  " fill-rule="nonzero" fill="#ffffff" stroke="none" mask="url(#clip70)" />
    <path d="M 190.45 23.4  C 187.174 23.4  184.6 20.826  184.6 17.55  C 184.6 14.274  187.174 11.7  190.45 11.7  C 193.726 11.7  196.3 14.274  196.3 17.55  C 196.3 20.826  193.726 23.4  190.45 23.4  " fill-rule="nonzero" fill="#cccccc" stroke="none" mask="url(#clip70)" />
    <path d="M 7 71  L 7 35.8  L 92.25 19.8  L 211.6 62.5628169014085  L 279.8 29.4  L 348 62.5628169014085  L 348 71  L 7 71  " fill-rule="nonzero" fill="#169bd5" stroke="none" mask="url(#clip70)" />
    <path d="M 39 77.5  C 17.6325 77.5  0.5 60.3675  0.5 39  L 0.5 39  C 0.5 17.6325  17.6325 0.5  39 0.5  L 316 0.5  C 337.3675 0.5  354.5 17.6325  354.5 39  L 354.5 39  C 354.5 60.3675  337.3675 77.5  316 77.5  L 39 77.5  Z " stroke-width="1" stroke="#9c9c9c" fill="none" />
  </g>
</svg>