<?xml version="1.0" encoding="utf-8"?>
<svg version="1.1" xmlns:xlink="http://www.w3.org/1999/xlink" width="6px" height="6px" xmlns="http://www.w3.org/2000/svg">
  <g transform="matrix(1 0 0 1 -36 -4 )">
    <path d="M 39 4  C 40.68 4  42 5.32  42 7  C 42 8.68  40.68 10  39 10  C 37.32 10  36 8.68  36 7  C 36 5.32  37.32 4  39 4  Z " fill-rule="nonzero" fill="#ffffff" stroke="none" />
    <path d="M 39 4.5  C 40.4 4.5  41.5 5.6  41.5 7  C 41.5 8.4  40.4 9.5  39 9.5  C 37.6 9.5  36.5 8.4  36.5 7  C 36.5 5.6  37.6 4.5  39 4.5  Z " stroke-width="1" stroke="#797979" fill="none" />
  </g>
</svg>