<?xml version="1.0" encoding="utf-8"?>
<svg version="1.1" xmlns:xlink="http://www.w3.org/1999/xlink" width="33px" height="5px" xmlns="http://www.w3.org/2000/svg">
  <g transform="matrix(1 0 0 1 -5 -8 )">
    <path d="M 2.5 5  C 1.1 5  0 3.9  0 2.5  C 0 1.1  1.1 0  2.5 0  C 3.9 0  5 1.1  5 2.5  C 5 3.9  3.9 5  2.5 5  Z M 9.5 5  C 8.1 5  7 3.9  7 2.5  C 7 1.1  8.1 0  9.5 0  C 10.9 0  12 1.1  12 2.5  C 12 3.9  10.9 5  9.5 5  Z M 14 2.5  C 14 1.1  15.1 0  16.5 0  C 17.9 0  19 1.1  19 2.5  C 19 3.9  17.9 5  16.5 5  C 15.1 5  14 3.9  14 2.5  Z M 23.5 0  C 24.9 0  26 1.1  26 2.5  C 26 3.9  24.9 5  23.5 5  C 22.1 5  21 3.9  21 2.5  C 21 1.1  22.1 0  23.5 0  Z M 33 2.5  C 33 3.9  31.9 5  30.5 5  C 29.1 5  28 3.9  28 2.5  C 28 1.1  29.1 0  30.5 0  C 31.9 0  33 1.1  33 2.5  Z " fill-rule="nonzero" fill="#333333" stroke="none" transform="matrix(1 0 0 1 5 8 )" />
  </g>
</svg>