<?xml version="1.0" encoding="utf-8"?>
<svg version="1.1" xmlns:xlink="http://www.w3.org/1999/xlink" width="25px" height="25px" xmlns="http://www.w3.org/2000/svg">
  <g transform="matrix(1 0 0 1 -136 -216 )">
    <path d="M 148.5 216  C 155.5 216  161 221.5  161 228.5  C 161 235.5  155.5 241  148.5 241  C 141.5 241  136 235.5  136 228.5  C 136 221.5  141.5 216  148.5 216  Z " fill-rule="nonzero" fill="#ffffff" stroke="none" />
    <path d="M 148.5 216.5  C 155.22 216.5  160.5 221.78  160.5 228.5  C 160.5 235.22  155.22 240.5  148.5 240.5  C 141.78 240.5  136.5 235.22  136.5 228.5  C 136.5 221.78  141.78 216.5  148.5 216.5  Z " stroke-width="1" stroke="#606060" fill="none" />
  </g>
</svg>