<?xml version="1.0" encoding="utf-8"?>
<svg version="1.1" xmlns:xlink="http://www.w3.org/1999/xlink" width="20px" height="10px" xmlns="http://www.w3.org/2000/svg">
  <g transform="matrix(1 0 0 1 -345 -5 )">
    <path d="M 1.82978723404256 1.69889748549323  L 1.82978723404256 8.30110251450677  L 13.6453191489362 8.30110251450677  L 13.6453191489362 1.69889748549323  L 1.82978723404256 1.69889748549323  Z M 19.9858085106383 4.17471953578337  C 19.9858085106383 3.72083172147002  19.5772978723404 3.3494584139265  19.0780212765957 3.3494584139265  L 19.0780212765957 1.69889748549323  C 19.0780212765957 0.79110251450677  18.261 0.0483558994197288  17.2624042553192 0  L 1.82978723404256 0  C 0.831212765957446 0.0483558994197288  0.0141914893616786 0.79110251450677  0.0141914893616786 1.69889748549323  L 0.0141914893616786 8.30110251450677  C 0.0141914893616786 9.20889748549323  0.831212765957446 9.95164410058027  1.82978723404256 10  L 17.2624042553192 10  C 18.261 9.95164410058027  19.0780212765957 9.20889748549323  19.0780212765957 8.30110251450677  L 19.0780212765957 6.6505415860735  C 19.5772978723404 6.6505415860735  19.9858085106383 6.27916827852998  19.9858085106383 5.82528046421664  L 19.9858085106383 4.17471953578337  Z M 18.1702127659574 1.69889748549323  L 18.1702127659574 4.17471953578337  L 18.1702127659574 8.30110251450677  C 18.1702127659574 8.75499032882012  17.7617021276596 9.12636363636364  17.2624042553192 9  L 1.82978723404256 9  C 1.33048936170212 9.12636363636364  0.921978723404266 8.75499032882012  0.921978723404266 8.30110251450677  L 0.921978723404266 1.69889748549323  C 0.921978723404266 1.24500967117988  1.33048936170212 0.873636363636364  1.82978723404256 1  L 17.2624042553192 1  C 17.7617021276596 0.873636363636364  18.1702127659574 1.24500967117988  18.1702127659574 1.69889748549323  Z " fill-rule="nonzero" fill="#333333" stroke="none" transform="matrix(1 0 0 1 345 5 )" />
  </g>
</svg>