<?xml version="1.0" encoding="utf-8"?>
<svg version="1.1" xmlns:xlink="http://www.w3.org/1999/xlink" width="25px" height="25px" xmlns="http://www.w3.org/2000/svg">
  <g transform="matrix(1 0 0 1 -149 -578 )">
    <path d="M 161.5 578  C 168.5 578  174 583.5  174 590.5  C 174 597.5  168.5 603  161.5 603  C 154.5 603  149 597.5  149 590.5  C 149 583.5  154.5 578  161.5 578  Z " fill-rule="nonzero" fill="#ffffff" stroke="none" />
    <path d="M 161.5 578.5  C 168.22 578.5  173.5 583.78  173.5 590.5  C 173.5 597.22  168.22 602.5  161.5 602.5  C 154.78 602.5  149.5 597.22  149.5 590.5  C 149.5 583.78  154.78 578.5  161.5 578.5  Z " stroke-width="1" stroke="#606060" fill="none" />
  </g>
</svg>